%TF.GenerationSoftware,KiCad,Pcbnew,(7.0.0)*%
%TF.CreationDate,2023-05-29T14:56:51-06:00*%
%TF.ProjectId,GPS_TRACKER,4750535f-5452-4414-934b-45522e6b6963,rev?*%
%TF.SameCoordinates,Original*%
%TF.FileFunction,Copper,L1,Top*%
%TF.FilePolarity,Positive*%
%FSLAX46Y46*%
G04 Gerber Fmt 4.6, Leading zero omitted, Abs format (unit mm)*
G04 Created by KiCad (PCBNEW (7.0.0)) date 2023-05-29 14:56:51*
%MOMM*%
%LPD*%
G01*
G04 APERTURE LIST*
%TA.AperFunction,ComponentPad*%
%ADD10R,1.700000X1.700000*%
%TD*%
%TA.AperFunction,ComponentPad*%
%ADD11O,1.700000X1.700000*%
%TD*%
%TA.AperFunction,ComponentPad*%
%ADD12R,2.000000X1.500000*%
%TD*%
%TA.AperFunction,ComponentPad*%
%ADD13O,2.000000X1.500000*%
%TD*%
%TA.AperFunction,ComponentPad*%
%ADD14R,2.200000X1.500000*%
%TD*%
%TA.AperFunction,ComponentPad*%
%ADD15O,2.200000X1.500000*%
%TD*%
%TA.AperFunction,ViaPad*%
%ADD16C,0.800000*%
%TD*%
%TA.AperFunction,Conductor*%
%ADD17C,0.250000*%
%TD*%
%TA.AperFunction,Conductor*%
%ADD18C,0.000000*%
%TD*%
G04 APERTURE END LIST*
D10*
%TO.P,SMS1,1*%
%TO.N,N/C*%
X142239999Y-74929999D03*
D11*
%TO.P,SMS1,2*%
X142239999Y-77469999D03*
%TO.P,SMS1,3*%
X142239999Y-80009999D03*
%TO.P,SMS1,4*%
X142239999Y-82549999D03*
%TO.P,SMS1,5*%
X142239999Y-85089999D03*
%TO.P,SMS1,6*%
X142239999Y-87629999D03*
%TD*%
D10*
%TO.P,BuckConverter1,1*%
%TO.N,N/C*%
X159501625Y-49114405D03*
%TD*%
%TO.P,BuckConverter1,1*%
%TO.N,N/C*%
X159279106Y-58419999D03*
%TD*%
%TO.P,BuckConverter1,1*%
%TO.N,N/C*%
X143817382Y-58323501D03*
%TD*%
%TO.P,GPS1,1*%
%TO.N,N/C*%
X144779999Y-110489999D03*
D11*
%TO.P,GPS1,2*%
X144779999Y-113029999D03*
%TO.P,GPS1,3*%
X144779999Y-115569999D03*
%TO.P,GPS1,4*%
X144779999Y-118109999D03*
%TD*%
D10*
%TO.P,BuckConverter1,1*%
%TO.N,N/C*%
X144084611Y-49176073D03*
%TD*%
%TO.P,SMS1,1*%
%TO.N,N/C*%
X165099999Y-77469999D03*
D11*
%TO.P,SMS1,2*%
X165099999Y-80009999D03*
%TO.P,SMS1,3*%
X165099999Y-82549999D03*
%TO.P,SMS1,4*%
X165099999Y-85089999D03*
%TO.P,SMS1,5*%
X165099999Y-87629999D03*
%TO.P,SMS1,6*%
X165099999Y-90169999D03*
%TD*%
D12*
%TO.P,STM32F4_Discovery_Header,1*%
%TO.N,N/C*%
X125479999Y-74219999D03*
D13*
%TO.P,STM32F4_Discovery_Header,2*%
X128519999Y-74219999D03*
%TO.P,STM32F4_Discovery_Header,3*%
X125479999Y-76759999D03*
%TO.P,STM32F4_Discovery_Header,4*%
X128519999Y-76759999D03*
%TO.P,STM32F4_Discovery_Header,5*%
X125479999Y-79299999D03*
%TO.P,STM32F4_Discovery_Header,6*%
X128519999Y-79299999D03*
%TO.P,STM32F4_Discovery_Header,7*%
X125479999Y-81839999D03*
%TO.P,STM32F4_Discovery_Header,8*%
X128519999Y-81839999D03*
%TO.P,STM32F4_Discovery_Header,9*%
X125479999Y-84379999D03*
%TO.P,STM32F4_Discovery_Header,10*%
X128519999Y-84379999D03*
%TO.P,STM32F4_Discovery_Header,11*%
X125479999Y-86919999D03*
%TO.P,STM32F4_Discovery_Header,12*%
X128519999Y-86919999D03*
%TO.P,STM32F4_Discovery_Header,13*%
X125479999Y-89459999D03*
%TO.P,STM32F4_Discovery_Header,14*%
X128519999Y-89459999D03*
%TO.P,STM32F4_Discovery_Header,15*%
X125479999Y-91999999D03*
%TO.P,STM32F4_Discovery_Header,16*%
X128519999Y-91999999D03*
%TO.P,STM32F4_Discovery_Header,17*%
X125479999Y-94539999D03*
%TO.P,STM32F4_Discovery_Header,18*%
X128519999Y-94539999D03*
%TO.P,STM32F4_Discovery_Header,19*%
X125479999Y-97079999D03*
%TO.P,STM32F4_Discovery_Header,20*%
X128519999Y-97079999D03*
%TO.P,STM32F4_Discovery_Header,21*%
X125479999Y-99619999D03*
%TO.P,STM32F4_Discovery_Header,22*%
X128519999Y-99619999D03*
%TO.P,STM32F4_Discovery_Header,23*%
X125479999Y-102159999D03*
%TO.P,STM32F4_Discovery_Header,24*%
X128519999Y-102159999D03*
%TO.P,STM32F4_Discovery_Header,25*%
X125479999Y-104699999D03*
%TO.P,STM32F4_Discovery_Header,26*%
X128519999Y-104699999D03*
%TO.P,STM32F4_Discovery_Header,27*%
X125479999Y-107239999D03*
%TO.P,STM32F4_Discovery_Header,28*%
X128519999Y-107239999D03*
%TO.P,STM32F4_Discovery_Header,29*%
X125479999Y-109779999D03*
%TO.P,STM32F4_Discovery_Header,30*%
X128519999Y-109779999D03*
%TO.P,STM32F4_Discovery_Header,31*%
X125479999Y-112319999D03*
%TO.P,STM32F4_Discovery_Header,32*%
X128519999Y-112319999D03*
%TO.P,STM32F4_Discovery_Header,33*%
X125479999Y-114859999D03*
%TO.P,STM32F4_Discovery_Header,34*%
X128519999Y-114859999D03*
%TO.P,STM32F4_Discovery_Header,35*%
X125479999Y-117399999D03*
%TO.P,STM32F4_Discovery_Header,36*%
X128519999Y-117399999D03*
%TO.P,STM32F4_Discovery_Header,37*%
X125479999Y-119939999D03*
%TO.P,STM32F4_Discovery_Header,38*%
X128519999Y-119939999D03*
%TO.P,STM32F4_Discovery_Header,39*%
X125479999Y-122479999D03*
%TO.P,STM32F4_Discovery_Header,40*%
X128519999Y-122479999D03*
%TO.P,STM32F4_Discovery_Header,41*%
X125479999Y-125019999D03*
%TO.P,STM32F4_Discovery_Header,42*%
X128519999Y-125019999D03*
%TO.P,STM32F4_Discovery_Header,43*%
X125479999Y-127559999D03*
%TO.P,STM32F4_Discovery_Header,44*%
X128519999Y-127559999D03*
%TO.P,STM32F4_Discovery_Header,45*%
X125479999Y-130099999D03*
%TO.P,STM32F4_Discovery_Header,46*%
X128519999Y-130099999D03*
%TO.P,STM32F4_Discovery_Header,47*%
X125479999Y-132639999D03*
%TO.P,STM32F4_Discovery_Header,48*%
X128519999Y-132639999D03*
%TO.P,STM32F4_Discovery_Header,49*%
X125479999Y-135179999D03*
D14*
X125729999Y-43739999D03*
D13*
%TO.P,STM32F4_Discovery_Header,50*%
X128519999Y-135179999D03*
D15*
X125729999Y-46279999D03*
D13*
%TO.P,STM32F4_Discovery_Header,51*%
X176279999Y-135179999D03*
D14*
X179069999Y-43739999D03*
D13*
%TO.P,STM32F4_Discovery_Header,52*%
X179319999Y-135179999D03*
D15*
X179069999Y-46279999D03*
D13*
%TO.P,STM32F4_Discovery_Header,53*%
X176279999Y-132639999D03*
%TO.P,STM32F4_Discovery_Header,54*%
X179319999Y-132639999D03*
%TO.P,STM32F4_Discovery_Header,55*%
X176279999Y-130099999D03*
%TO.P,STM32F4_Discovery_Header,56*%
X179319999Y-130099999D03*
%TO.P,STM32F4_Discovery_Header,57*%
X176279999Y-127559999D03*
%TO.P,STM32F4_Discovery_Header,58*%
X179319999Y-127559999D03*
%TO.P,STM32F4_Discovery_Header,59*%
X176279999Y-125019999D03*
%TO.P,STM32F4_Discovery_Header,60*%
X179319999Y-125019999D03*
%TO.P,STM32F4_Discovery_Header,61*%
X176279999Y-122479999D03*
%TO.P,STM32F4_Discovery_Header,62*%
X179319999Y-122479999D03*
%TO.P,STM32F4_Discovery_Header,63*%
X176279999Y-119939999D03*
%TO.P,STM32F4_Discovery_Header,64*%
X179319999Y-119939999D03*
%TO.P,STM32F4_Discovery_Header,65*%
X176279999Y-117399999D03*
%TO.P,STM32F4_Discovery_Header,66*%
X179319999Y-117399999D03*
%TO.P,STM32F4_Discovery_Header,67*%
X176279999Y-114859999D03*
%TO.P,STM32F4_Discovery_Header,68*%
X179319999Y-114859999D03*
%TO.P,STM32F4_Discovery_Header,69*%
X176279999Y-112319999D03*
%TO.P,STM32F4_Discovery_Header,70*%
X179319999Y-112319999D03*
%TO.P,STM32F4_Discovery_Header,71*%
X176279999Y-109779999D03*
%TO.P,STM32F4_Discovery_Header,72*%
X179319999Y-109779999D03*
%TO.P,STM32F4_Discovery_Header,73*%
X176279999Y-107239999D03*
%TO.P,STM32F4_Discovery_Header,74*%
X179319999Y-107239999D03*
%TO.P,STM32F4_Discovery_Header,75*%
X176279999Y-104699999D03*
%TO.P,STM32F4_Discovery_Header,76*%
X179319999Y-104699999D03*
%TO.P,STM32F4_Discovery_Header,77*%
X176279999Y-102159999D03*
%TO.P,STM32F4_Discovery_Header,78*%
X179319999Y-102159999D03*
%TO.P,STM32F4_Discovery_Header,79*%
X176279999Y-99619999D03*
%TO.P,STM32F4_Discovery_Header,80*%
X179319999Y-99619999D03*
%TO.P,STM32F4_Discovery_Header,81*%
X176279999Y-97079999D03*
%TO.P,STM32F4_Discovery_Header,82*%
X179319999Y-97079999D03*
%TO.P,STM32F4_Discovery_Header,83*%
X176279999Y-94539999D03*
%TO.P,STM32F4_Discovery_Header,84*%
X179319999Y-94539999D03*
%TO.P,STM32F4_Discovery_Header,85*%
X176279999Y-91999999D03*
%TO.P,STM32F4_Discovery_Header,86*%
X179319999Y-91999999D03*
%TO.P,STM32F4_Discovery_Header,87*%
X176279999Y-89459999D03*
%TO.P,STM32F4_Discovery_Header,88*%
X179319999Y-89459999D03*
%TO.P,STM32F4_Discovery_Header,89*%
X176279999Y-86919999D03*
%TO.P,STM32F4_Discovery_Header,90*%
X179319999Y-86919999D03*
%TO.P,STM32F4_Discovery_Header,91*%
X176279999Y-84379999D03*
%TO.P,STM32F4_Discovery_Header,92*%
X179319999Y-84379999D03*
%TO.P,STM32F4_Discovery_Header,93*%
X176279999Y-81839999D03*
%TO.P,STM32F4_Discovery_Header,94*%
X179319999Y-81839999D03*
%TO.P,STM32F4_Discovery_Header,95*%
X176279999Y-79299999D03*
%TO.P,STM32F4_Discovery_Header,96*%
X179319999Y-79299999D03*
%TO.P,STM32F4_Discovery_Header,97*%
X176279999Y-76759999D03*
%TO.P,STM32F4_Discovery_Header,98*%
X179319999Y-76759999D03*
D12*
%TO.P,STM32F4_Discovery_Header,99*%
X176279999Y-74219999D03*
D13*
%TO.P,STM32F4_Discovery_Header,100*%
X179319999Y-74219999D03*
%TD*%
D16*
%TO.N,*%
X130810000Y-68580000D03*
X138430000Y-82550000D03*
X137160000Y-81280000D03*
X133350000Y-81280000D03*
X168910000Y-74930000D03*
X135890000Y-82550000D03*
X171450000Y-72390000D03*
X134620000Y-85090000D03*
%TD*%
D17*
%TO.N,*%
X125730000Y-86920000D02*
X123750000Y-86920000D01*
X133350000Y-73660000D02*
X129540000Y-69850000D01*
X137160000Y-60960000D02*
X139796498Y-58323502D01*
X168910000Y-53340000D02*
X164719683Y-49149683D01*
X133350000Y-81280000D02*
X133350000Y-73660000D01*
X144780000Y-110490000D02*
X163830000Y-110490000D01*
X171450000Y-113030000D02*
X171450000Y-74930000D01*
X128830000Y-86360000D02*
X132080000Y-86360000D01*
X128270000Y-86920000D02*
X128830000Y-86360000D01*
X137160000Y-76200000D02*
X137160000Y-60960000D01*
X173280000Y-76760000D02*
X171450000Y-74930000D01*
X134620000Y-102870000D02*
X134620000Y-86360000D01*
X142240000Y-87630000D02*
X134620000Y-80010000D01*
X124460000Y-71120000D02*
X121920000Y-73660000D01*
X176530000Y-76760000D02*
X173280000Y-76760000D01*
X166370000Y-69850000D02*
X171450000Y-74930000D01*
X159279107Y-58420000D02*
X163830000Y-58420000D01*
X123750000Y-86920000D02*
X121920000Y-85090000D01*
X139796498Y-58323502D02*
X143817383Y-58323502D01*
D18*
X159984723Y-49114406D02*
X160020000Y-49149683D01*
D17*
X164719683Y-49149683D02*
X160020000Y-49149683D01*
X144780000Y-115570000D02*
X132080000Y-102870000D01*
X136270317Y-49149683D02*
X142240000Y-49149683D01*
X120650000Y-87997823D02*
X121822068Y-89169891D01*
X160020000Y-49149683D02*
X159144228Y-49149683D01*
X134620000Y-50800000D02*
X136270317Y-49149683D01*
X163830000Y-58420000D02*
X166370000Y-60960000D01*
X127000000Y-67310000D02*
X120650000Y-73660000D01*
X120650000Y-73660000D02*
X120650000Y-87997823D01*
X144780000Y-113030000D02*
X134620000Y-102870000D01*
D18*
X159501626Y-49114406D02*
X159984723Y-49114406D01*
D17*
X137160000Y-81280000D02*
X140970000Y-81280000D01*
X142240000Y-85090000D02*
X139700000Y-82550000D01*
X125439891Y-89169891D02*
X125730000Y-89460000D01*
X125730000Y-71120000D02*
X124460000Y-71120000D01*
X139700000Y-82550000D02*
X138430000Y-82550000D01*
X142240000Y-49149683D02*
X143375121Y-49149683D01*
X132080000Y-102870000D02*
X132080000Y-91072655D01*
X168910000Y-66600000D02*
X168910000Y-53340000D01*
X168910000Y-105410000D02*
X168910000Y-74930000D01*
X134620000Y-80010000D02*
X134620000Y-50800000D01*
X132080000Y-86360000D02*
X135890000Y-82550000D01*
X130810000Y-68580000D02*
X129540000Y-67310000D01*
X166370000Y-118110000D02*
X171450000Y-113030000D01*
D18*
X142266391Y-49176074D02*
X142240000Y-49149683D01*
D17*
X166370000Y-60960000D02*
X166370000Y-69850000D01*
X176530000Y-74220000D02*
X173075000Y-70765000D01*
X127000000Y-69850000D02*
X125730000Y-71120000D01*
X134620000Y-86360000D02*
X134620000Y-85090000D01*
X132080000Y-91072655D02*
X130467345Y-89460000D01*
X129540000Y-67310000D02*
X127000000Y-67310000D01*
D18*
X144084612Y-49176074D02*
X142266391Y-49176074D01*
D17*
X140970000Y-81280000D02*
X142240000Y-82550000D01*
X121822068Y-89169891D02*
X125439891Y-89169891D01*
X130467345Y-89460000D02*
X128270000Y-89460000D01*
X129540000Y-69850000D02*
X127000000Y-69850000D01*
X171450000Y-72390000D02*
X173075000Y-70765000D01*
X144780000Y-118110000D02*
X166370000Y-118110000D01*
X138430000Y-77470000D02*
X137160000Y-76200000D01*
X142240000Y-77470000D02*
X138430000Y-77470000D01*
X121920000Y-85090000D02*
X121920000Y-73660000D01*
X173075000Y-70765000D02*
X168910000Y-66600000D01*
X163830000Y-110490000D02*
X168910000Y-105410000D01*
%TD*%
M02*
