M48
; DRILL file {KiCad (7.0.0)} date Mon May 29 14:56:55 2023
; FORMAT={-:-/ absolute / inch / decimal}
; #@! TF.CreationDate,2023-05-29T14:56:55-06:00
; #@! TF.GenerationSoftware,Kicad,Pcbnew,(7.0.0)
; #@! TF.FileFunction,Plated,1,2,PTH
FMAT,2
INCH
; #@! TA.AperFunction,Plated,PTH,ViaDrill
T1C0.0157
; #@! TA.AperFunction,Plated,PTH,ComponentDrill
T2C0.0393
; #@! TA.AperFunction,Plated,PTH,ComponentDrill
T3C0.0394
; #@! TA.AperFunction,Plated,PTH,ComponentDrill
T4C0.0394
%
G90
G05
T1
X5.15Y-2.7
X5.25Y-3.2
X5.3Y-3.35
X5.35Y-3.25
X5.4Y-3.2
X5.45Y-3.25
X6.65Y-2.95
X6.75Y-2.85
T2
X4.95Y-3.022
X4.95Y-3.122
X4.95Y-3.222
X4.95Y-3.322
X4.95Y-3.422
X4.95Y-3.522
X4.95Y-3.622
X4.95Y-3.722
X4.95Y-3.822
X4.95Y-3.922
X4.95Y-4.022
X4.95Y-4.122
X4.95Y-4.222
X4.95Y-4.322
X4.95Y-4.422
X4.95Y-4.522
X4.95Y-4.622
X4.95Y-4.722
X4.95Y-4.822
X4.95Y-4.922
X4.95Y-5.022
X4.95Y-5.122
X4.95Y-5.222
X4.95Y-5.322
X6.95Y-3.022
X6.95Y-3.122
X6.95Y-3.222
X6.95Y-3.322
X6.95Y-3.422
X6.95Y-3.522
X6.95Y-3.622
X6.95Y-3.722
X6.95Y-3.822
X6.95Y-3.922
X6.95Y-4.022
X6.95Y-4.122
X6.95Y-4.222
X6.95Y-4.322
X6.95Y-4.422
X6.95Y-4.522
X6.95Y-4.622
X6.95Y-4.722
X6.95Y-4.822
X6.95Y-4.922
X6.95Y-5.022
X6.95Y-5.122
X6.95Y-5.222
X6.95Y-5.322
T3
X5.6Y-2.95
X5.6Y-3.05
X5.6Y-3.15
X5.6Y-3.25
X5.6Y-3.35
X5.6Y-3.45
X5.6621Y-2.2962
X5.6726Y-1.9361
X5.7Y-4.35
X5.7Y-4.45
X5.7Y-4.55
X5.7Y-4.65
X6.2708Y-2.3
X6.2796Y-1.9336
X6.5Y-3.05
X6.5Y-3.15
X6.5Y-3.25
X6.5Y-3.35
X6.5Y-3.45
X6.5Y-3.55
T4
X4.95Y-1.722
X4.95Y-1.822
X4.95Y-2.922
X5.05Y-2.922
X5.05Y-3.022
X5.05Y-3.122
X5.05Y-3.222
X5.05Y-3.322
X5.05Y-3.422
X5.05Y-3.522
X5.05Y-3.622
X5.05Y-3.722
X5.05Y-3.822
X5.05Y-3.922
X5.05Y-4.022
X5.05Y-4.122
X5.05Y-4.222
X5.05Y-4.322
X5.05Y-4.422
X5.05Y-4.522
X5.05Y-4.622
X5.05Y-4.722
X5.05Y-4.822
X5.05Y-4.922
X5.05Y-5.022
X5.05Y-5.122
X5.05Y-5.222
X5.05Y-5.322
X6.95Y-2.922
X7.05Y-1.722
X7.05Y-1.822
X7.05Y-2.922
X7.05Y-3.022
X7.05Y-3.122
X7.05Y-3.222
X7.05Y-3.322
X7.05Y-3.422
X7.05Y-3.522
X7.05Y-3.622
X7.05Y-3.722
X7.05Y-3.822
X7.05Y-3.922
X7.05Y-4.022
X7.05Y-4.122
X7.05Y-4.222
X7.05Y-4.322
X7.05Y-4.422
X7.05Y-4.522
X7.05Y-4.622
X7.05Y-4.722
X7.05Y-4.822
X7.05Y-4.922
X7.05Y-5.022
X7.05Y-5.122
X7.05Y-5.222
X7.05Y-5.322
T0
M30
