%TF.GenerationSoftware,KiCad,Pcbnew,(7.0.0)*%
%TF.CreationDate,2023-05-29T14:56:51-06:00*%
%TF.ProjectId,GPS_TRACKER,4750535f-5452-4414-934b-45522e6b6963,rev?*%
%TF.SameCoordinates,Original*%
%TF.FileFunction,Soldermask,Bot*%
%TF.FilePolarity,Negative*%
%FSLAX46Y46*%
G04 Gerber Fmt 4.6, Leading zero omitted, Abs format (unit mm)*
G04 Created by KiCad (PCBNEW (7.0.0)) date 2023-05-29 14:56:51*
%MOMM*%
%LPD*%
G01*
G04 APERTURE LIST*
%ADD10R,1.700000X1.700000*%
%ADD11O,1.700000X1.700000*%
%ADD12R,2.000000X1.500000*%
%ADD13O,2.000000X1.500000*%
%ADD14R,2.200000X1.500000*%
%ADD15O,2.200000X1.500000*%
G04 APERTURE END LIST*
D10*
%TO.C,SMS1*%
X142239999Y-74929999D03*
D11*
X142239999Y-77469999D03*
X142239999Y-80009999D03*
X142239999Y-82549999D03*
X142239999Y-85089999D03*
X142239999Y-87629999D03*
%TD*%
D10*
%TO.C,BuckConverter1*%
X159501625Y-49114405D03*
%TD*%
%TO.C,BuckConverter1*%
X159279106Y-58419999D03*
%TD*%
%TO.C,BuckConverter1*%
X143817382Y-58323501D03*
%TD*%
%TO.C,GPS1*%
X144779999Y-110489999D03*
D11*
X144779999Y-113029999D03*
X144779999Y-115569999D03*
X144779999Y-118109999D03*
%TD*%
D10*
%TO.C,BuckConverter1*%
X144084611Y-49176073D03*
%TD*%
%TO.C,SMS1*%
X165099999Y-77469999D03*
D11*
X165099999Y-80009999D03*
X165099999Y-82549999D03*
X165099999Y-85089999D03*
X165099999Y-87629999D03*
X165099999Y-90169999D03*
%TD*%
D12*
%TO.C,STM32F4_Discovery_Header*%
X125479999Y-74219999D03*
D13*
X128519999Y-74219999D03*
X125479999Y-76759999D03*
X128519999Y-76759999D03*
X125479999Y-79299999D03*
X128519999Y-79299999D03*
X125479999Y-81839999D03*
X128519999Y-81839999D03*
X125479999Y-84379999D03*
X128519999Y-84379999D03*
X125479999Y-86919999D03*
X128519999Y-86919999D03*
X125479999Y-89459999D03*
X128519999Y-89459999D03*
X125479999Y-91999999D03*
X128519999Y-91999999D03*
X125479999Y-94539999D03*
X128519999Y-94539999D03*
X125479999Y-97079999D03*
X128519999Y-97079999D03*
X125479999Y-99619999D03*
X128519999Y-99619999D03*
X125479999Y-102159999D03*
X128519999Y-102159999D03*
X125479999Y-104699999D03*
X128519999Y-104699999D03*
X125479999Y-107239999D03*
X128519999Y-107239999D03*
X125479999Y-109779999D03*
X128519999Y-109779999D03*
X125479999Y-112319999D03*
X128519999Y-112319999D03*
X125479999Y-114859999D03*
X128519999Y-114859999D03*
X125479999Y-117399999D03*
X128519999Y-117399999D03*
X125479999Y-119939999D03*
X128519999Y-119939999D03*
X125479999Y-122479999D03*
X128519999Y-122479999D03*
X125479999Y-125019999D03*
X128519999Y-125019999D03*
X125479999Y-127559999D03*
X128519999Y-127559999D03*
X125479999Y-130099999D03*
X128519999Y-130099999D03*
X125479999Y-132639999D03*
X128519999Y-132639999D03*
X125479999Y-135179999D03*
D14*
X125729999Y-43739999D03*
D13*
X128519999Y-135179999D03*
D15*
X125729999Y-46279999D03*
D13*
X176279999Y-135179999D03*
D14*
X179069999Y-43739999D03*
D13*
X179319999Y-135179999D03*
D15*
X179069999Y-46279999D03*
D13*
X176279999Y-132639999D03*
X179319999Y-132639999D03*
X176279999Y-130099999D03*
X179319999Y-130099999D03*
X176279999Y-127559999D03*
X179319999Y-127559999D03*
X176279999Y-125019999D03*
X179319999Y-125019999D03*
X176279999Y-122479999D03*
X179319999Y-122479999D03*
X176279999Y-119939999D03*
X179319999Y-119939999D03*
X176279999Y-117399999D03*
X179319999Y-117399999D03*
X176279999Y-114859999D03*
X179319999Y-114859999D03*
X176279999Y-112319999D03*
X179319999Y-112319999D03*
X176279999Y-109779999D03*
X179319999Y-109779999D03*
X176279999Y-107239999D03*
X179319999Y-107239999D03*
X176279999Y-104699999D03*
X179319999Y-104699999D03*
X176279999Y-102159999D03*
X179319999Y-102159999D03*
X176279999Y-99619999D03*
X179319999Y-99619999D03*
X176279999Y-97079999D03*
X179319999Y-97079999D03*
X176279999Y-94539999D03*
X179319999Y-94539999D03*
X176279999Y-91999999D03*
X179319999Y-91999999D03*
X176279999Y-89459999D03*
X179319999Y-89459999D03*
X176279999Y-86919999D03*
X179319999Y-86919999D03*
X176279999Y-84379999D03*
X179319999Y-84379999D03*
X176279999Y-81839999D03*
X179319999Y-81839999D03*
X176279999Y-79299999D03*
X179319999Y-79299999D03*
X176279999Y-76759999D03*
X179319999Y-76759999D03*
D12*
X176279999Y-74219999D03*
D13*
X179319999Y-74219999D03*
%TD*%
M02*
